<?xml version="1.0" encoding="iso-8859-1"?>
<!-- Generator: Adobe Illustrator 19.0.0, SVG Export Plug-In . SVG Version: 6.00 Build 0)  -->
<svg version="1.1" id="Layer_1" xmlns="http://www.w3.org/2000/svg" xmlns:xlink="http://www.w3.org/1999/xlink" x="0px" y="0px"
	 viewBox="0 0 512 512" style="enable-background:new 0 0 512 512;" xml:space="preserve">
<path style="fill:#CEE8FA;" d="M14.629,73.444v375.795h375.795L14.629,73.444z M81.734,235.453l146.681,146.681H81.734V235.453z"/>
<g>
	<path style="fill:#2D527C;" d="M390.423,463.868H14.629c-8.08,0-14.629-6.55-14.629-14.629V73.444
		c0-5.916,3.565-11.251,9.03-13.515c5.465-2.265,11.758-1.012,15.941,3.17l375.795,375.795c4.184,4.184,5.436,10.477,3.171,15.942
		C401.674,460.304,396.341,463.868,390.423,463.868z M29.257,434.61h325.85L29.257,108.76L29.257,434.61L29.257,434.61z
		 M228.415,396.762H81.736c-8.079,0-14.629-6.549-14.629-14.629v-146.68c0-5.916,3.565-11.251,9.03-13.515
		c5.465-2.265,11.757-1.012,15.942,3.17l146.681,146.68c4.184,4.184,5.435,10.476,3.17,15.941
		C239.666,393.197,234.331,396.762,228.415,396.762z M96.364,367.505h96.734L96.364,270.77V367.505L96.364,367.505z"/>
	<path style="fill:#2D527C;" d="M462.832,463.868c-4.604,0-8.94-2.168-11.703-5.851l-34.54-46.052
		c-1.899-2.532-2.926-5.612-2.926-8.777V62.761c0-8.079,6.549-14.629,14.629-14.629h69.079c8.079,0,14.629,6.549,14.629,14.629
		v83.342c0,8.079-6.549,14.629-14.629,14.629s-14.629-6.549-14.629-14.629V77.39H442.92v320.92l19.911,26.548l19.911-26.548V209.047
		c0-8.079,6.549-14.629,14.629-14.629S512,200.967,512,209.047v194.14c0,3.166-1.027,6.245-2.926,8.777l-34.54,46.052
		C471.771,461.7,467.436,463.868,462.832,463.868z"/>
</g>
<rect x="428.3" y="62.761" style="fill:#CEE8FA;" width="69.08" height="57.56"/>
<path style="fill:#2D527C;" d="M497.371,134.956h-69.079c-8.079,0-14.629-6.549-14.629-14.629V62.761
	c0-8.079,6.549-14.629,14.629-14.629h69.079c8.079,0,14.629,6.549,14.629,14.629v57.566
	C512,128.407,505.451,134.956,497.371,134.956z M442.921,105.699h39.822V77.39h-39.822V105.699z"/>
<polygon style="fill:#CEE8FA;" points="428.292,393.975 428.292,403.185 462.832,449.239 497.371,403.185 497.371,393.975 "/>
<path style="fill:#2D527C;" d="M462.832,463.868L462.832,463.868c-4.604,0-8.94-2.168-11.703-5.851l-34.54-46.054
	c-1.899-2.532-2.926-5.612-2.926-8.777v-9.21c0-8.079,6.549-14.629,14.629-14.629h69.079c8.079,0,14.629,6.549,14.629,14.629v9.21
	c0,3.166-1.027,6.245-2.926,8.777l-34.54,46.054C471.771,461.7,467.436,463.868,462.832,463.868z M450.642,408.604l12.19,16.254
	l12.19-16.254H450.642z"/>
<g>
</g>
<g>
</g>
<g>
</g>
<g>
</g>
<g>
</g>
<g>
</g>
<g>
</g>
<g>
</g>
<g>
</g>
<g>
</g>
<g>
</g>
<g>
</g>
<g>
</g>
<g>
</g>
<g>
</g>
</svg>
