<?xml version="1.0" encoding="iso-8859-1"?>
<!-- Generator: Adobe Illustrator 19.0.0, SVG Export Plug-In . SVG Version: 6.00 Build 0)  -->
<svg version="1.1" id="Layer_1" xmlns="http://www.w3.org/2000/svg" xmlns:xlink="http://www.w3.org/1999/xlink" x="0px" y="0px"
	 viewBox="0 0 512 512" style="enable-background:new 0 0 512 512;" xml:space="preserve">
<path style="fill:#2D527C;" d="M256.001,461.789c-127.316,0-230.894-103.578-230.894-230.894S128.685,0,256.001,0
	c18.945,0,37.788,2.302,56.006,6.842c7.532,1.876,12.116,9.506,10.239,17.036c-1.876,7.532-9.503,12.116-17.038,10.239
	C289.212,30.131,272.654,28.11,256,28.11c-111.816,0-202.784,90.969-202.784,202.783s90.969,202.783,202.783,202.783
	s202.783-90.969,202.783-202.783c0-55.662-22.101-107.572-62.228-146.171c-5.594-5.38-5.768-14.279-0.387-19.874
	c5.382-5.595,14.279-5.768,19.873-0.385c45.69,43.948,70.853,103.052,70.853,166.43C486.894,358.21,383.315,461.789,256.001,461.789
	z"/>
<circle style="fill:#CEE8FA;" cx="256" cy="230.9" r="147.69"/>
<g>
	<path style="fill:#2D527C;" d="M256.001,392.646c-89.191,0-161.753-72.562-161.753-161.753S166.81,69.141,256.001,69.141
		s161.751,72.562,161.751,161.753S345.19,392.646,256.001,392.646z M256.001,97.252c-73.691,0-133.642,59.952-133.642,133.642
		s59.952,133.642,133.642,133.642s133.642-59.952,133.642-133.642S329.69,97.252,256.001,97.252z"/>
	<path style="fill:#2D527C;" d="M256.708,273.99c-2.412,0-4.845-0.618-7.053-1.903l-56.935-33.074
		c-6.711-3.898-8.993-12.501-5.094-19.214c3.899-6.711,12.502-8.994,19.214-5.092l46.839,27.208l47.891-55.641
		c5.064-5.886,13.939-6.547,19.822-1.484s6.548,13.939,1.484,19.822l-55.507,64.49C264.618,272.298,260.692,273.99,256.708,273.99z"
		/>
	<path style="fill:#2D527C;" d="M396.554,512c-31,0-56.221-25.221-56.221-56.221s25.221-56.221,56.221-56.221
		s56.221,25.221,56.221,56.221S427.554,512,396.554,512z M396.554,427.668c-15.5,0-28.111,12.61-28.111,28.111
		s12.61,28.111,28.111,28.111s28.111-12.61,28.111-28.111S412.054,427.668,396.554,427.668z"/>
	<path style="fill:#2D527C;" d="M115.448,512c-31,0-56.221-25.221-56.221-56.221s25.221-56.221,56.221-56.221
		s56.221,25.221,56.221,56.221S146.448,512,115.448,512z M115.448,427.668c-15.5,0-28.111,12.61-28.111,28.111
		s12.61,28.111,28.111,28.111s28.111-12.61,28.111-28.111S130.948,427.668,115.448,427.668z"/>
</g>
<g>
</g>
<g>
</g>
<g>
</g>
<g>
</g>
<g>
</g>
<g>
</g>
<g>
</g>
<g>
</g>
<g>
</g>
<g>
</g>
<g>
</g>
<g>
</g>
<g>
</g>
<g>
</g>
<g>
</g>
</svg>
