<?xml version="1.0" encoding="iso-8859-1"?>
<!-- Generator: Adobe Illustrator 19.0.0, SVG Export Plug-In . SVG Version: 6.00 Build 0)  -->
<svg version="1.1" id="Layer_1" xmlns="http://www.w3.org/2000/svg" xmlns:xlink="http://www.w3.org/1999/xlink" x="0px" y="0px"
	 viewBox="0 0 512 512" style="enable-background:new 0 0 512 512;" xml:space="preserve">
<g>
	<path style="fill:#2D527C;" d="M45.82,446.684c-7.988,0-14.463-6.477-14.463-14.463V79.778c0-7.987,6.475-14.463,14.463-14.463
		s14.463,6.477,14.463,14.463v352.443C60.283,440.207,53.808,446.684,45.82,446.684z"/>
	<path style="fill:#2D527C;" d="M466.18,446.684c-7.988,0-14.463-6.477-14.463-14.463V79.778c0-7.987,6.475-14.463,14.463-14.463
		s14.463,6.477,14.463,14.463v352.443C480.644,440.207,474.168,446.684,466.18,446.684z"/>
	<path style="fill:#2D527C;" d="M401.097,345.667H290.815c-7.988,0-14.463-6.477-14.463-14.463s6.475-14.463,14.463-14.463h110.282
		c7.988,0,14.463,6.477,14.463,14.463S409.085,345.667,401.097,345.667z"/>
	<path style="fill:#2D527C;" d="M223.364,345.667H45.82c-7.988,0-14.463-6.477-14.463-14.463s6.475-14.463,14.463-14.463h177.544
		c7.988,0,14.463,6.477,14.463,14.463S231.352,345.667,223.364,345.667z"/>
	<path style="fill:#2D527C;" d="M466.18,195.259H290.547c-7.988,0-14.463-6.477-14.463-14.463c0-7.987,6.475-14.463,14.463-14.463
		H466.18c7.988,0,14.463,6.477,14.463,14.463C480.644,188.782,474.168,195.259,466.18,195.259z"/>
	<path style="fill:#2D527C;" d="M222.38,195.259H108.12c-7.988,0-14.463-6.477-14.463-14.463c0-7.987,6.475-14.463,14.463-14.463
		h114.26c7.988,0,14.463,6.477,14.463,14.463S230.368,195.259,222.38,195.259z"/>
</g>
<path style="fill:#CEE8FA;" d="M140.758,230.224L140.758,230.224c-18.024,0-32.636-14.612-32.636-32.636v-33.585
	c0-18.024,14.612-32.636,32.636-32.636l0,0c18.024,0,32.636,14.612,32.636,32.636v33.585
	C173.394,215.613,158.782,230.224,140.758,230.224z"/>
<g>
	<path style="fill:#2D527C;" d="M140.758,244.688c-25.972,0-47.1-21.128-47.1-47.1v-33.585c0-25.972,21.129-47.1,47.1-47.1
		s47.1,21.128,47.1,47.1v33.585C187.858,223.559,166.728,244.688,140.758,244.688z M140.758,145.829
		c-10.022,0-18.173,8.153-18.173,18.173v33.585c0,10.022,8.153,18.173,18.173,18.173s18.173-8.153,18.173-18.173v-33.585
		C158.931,153.982,150.778,145.829,140.758,145.829z"/>
	<path style="fill:#2D527C;" d="M256.464,244.688c-25.972,0-47.1-21.128-47.1-47.1v-33.585c0-25.972,21.129-47.1,47.1-47.1
		s47.1,21.128,47.1,47.1v33.585C303.564,223.559,282.435,244.688,256.464,244.688z M256.464,145.829
		c-10.022,0-18.173,8.153-18.173,18.173v33.585c0,10.022,8.153,18.173,18.173,18.173c10.02,0,18.173-8.153,18.173-18.173v-33.585
		C274.637,153.982,266.484,145.829,256.464,145.829z"/>
</g>
<path style="fill:#CEE8FA;" d="M142.149,380.633L142.149,380.633c-18.024,0-32.636-14.612-32.636-32.636v-33.585
	c0-18.024,14.612-32.636,32.636-32.636l0,0c18.024,0,32.636,14.612,32.636,32.636v33.585
	C174.786,366.021,160.174,380.633,142.149,380.633z"/>
<g>
	<path style="fill:#2D527C;" d="M142.149,395.096c-25.972,0-47.1-21.128-47.1-47.1v-33.585c0-25.97,21.129-47.098,47.1-47.098
		s47.1,21.128,47.1,47.098v33.585C189.249,373.967,168.12,395.096,142.149,395.096z M142.149,296.238
		c-10.022,0-18.173,8.153-18.173,18.172v33.585c0,10.022,8.153,18.173,18.173,18.173s18.173-8.153,18.173-18.173V314.41
		C160.323,304.391,152.17,296.238,142.149,296.238z"/>
	<path style="fill:#2D527C;" d="M256,395.096c-25.972,0-47.1-21.128-47.1-47.1v-33.585c0-25.97,21.128-47.098,47.1-47.098
		s47.1,21.128,47.1,47.098v33.585C303.1,373.967,281.972,395.096,256,395.096z M256,296.238c-10.02,0-18.173,8.153-18.173,18.172
		v33.585c0,10.022,8.153,18.173,18.173,18.173c10.02,0,18.173-8.153,18.173-18.173V314.41
		C274.173,304.391,266.02,296.238,256,296.238z"/>
</g>
<path style="fill:#CEE8FA;" d="M369.851,380.633L369.851,380.633c-18.024,0-32.636-14.612-32.636-32.636v-33.585
	c0-18.024,14.612-32.636,32.636-32.636l0,0c18.024,0,32.636,14.612,32.636,32.636v33.585
	C402.488,366.021,387.876,380.633,369.851,380.633z"/>
<g>
	<path style="fill:#2D527C;" d="M369.851,395.096c-25.972,0-47.1-21.128-47.1-47.1v-33.585c0-25.97,21.128-47.098,47.1-47.098
		c25.972,0,47.1,21.128,47.1,47.098v33.585C416.952,373.967,395.822,395.096,369.851,395.096z M369.851,296.238
		c-10.02,0-18.173,8.153-18.173,18.172v33.585c0,10.022,8.153,18.173,18.173,18.173c10.022,0,18.173-8.153,18.173-18.173V314.41
		C388.025,304.391,379.872,296.238,369.851,296.238z"/>
	<path style="fill:#2D527C;" d="M476.613,505.886H35.387C15.875,505.886,0,490.013,0,470.501v-17.356
		c0-19.512,15.875-35.387,35.387-35.387h287.625c7.988,0,14.463,6.477,14.463,14.463s-6.475,14.463-14.463,14.463H35.387
		c-3.562,0-6.461,2.898-6.461,6.461v17.356c0,3.562,2.898,6.461,6.461,6.461h441.225c3.562,0,6.461-2.898,6.461-6.461v-17.356
		c0-3.562-2.898-6.461-6.461-6.461H420.4c-7.988,0-14.463-6.477-14.463-14.463s6.475-14.463,14.463-14.463h56.213
		c19.512,0,35.387,15.875,35.387,35.387v17.356C512,490.013,496.125,505.886,476.613,505.886z"/>
</g>
<path style="fill:#CEE8FA;" d="M476.613,79.778H35.387c-11.556,0-20.924-9.368-20.924-20.923V41.499
	c0-11.556,9.368-20.924,20.924-20.924h441.227c11.556,0,20.924,9.368,20.924,20.924v17.356
	C497.537,70.41,488.169,79.778,476.613,79.778z"/>
<path style="fill:#2D527C;" d="M476.613,94.241H35.387C15.875,94.241,0,78.368,0,58.854V41.498C0,21.987,15.875,6.114,35.387,6.114
	h441.225C496.125,6.114,512,21.987,512,41.498v17.356C512,78.368,496.125,94.241,476.613,94.241z M35.387,35.04
	c-3.562,0-6.461,2.897-6.461,6.459v17.356c0,3.562,2.898,6.461,6.461,6.461h441.225c3.562,0,6.461-2.898,6.461-6.461V41.499
	c0-3.562-2.898-6.459-6.461-6.459C476.613,35.04,35.387,35.04,35.387,35.04z"/>
<g>
</g>
<g>
</g>
<g>
</g>
<g>
</g>
<g>
</g>
<g>
</g>
<g>
</g>
<g>
</g>
<g>
</g>
<g>
</g>
<g>
</g>
<g>
</g>
<g>
</g>
<g>
</g>
<g>
</g>
</svg>
